<svg width="40" height="36" viewBox="0 0 40 36" fill="none" xmlns="http://www.w3.org/2000/svg">
<path id="Vector" fill-rule="evenodd" clip-rule="evenodd" d="M21.5844 0.955119C21.4447 0.669973 21.2213 0.428482 20.9405 0.259218C20.6597 0.0899537 20.3334 0 20 0C19.6667 0 19.3403 0.0899537 19.0595 0.259218C18.7787 0.428482 18.5553 0.669973 18.4156 0.955119L13.4076 11.1798L1.54033 12.5064C1.20923 12.5432 0.896255 12.6686 0.638454 12.8678C0.380654 13.0669 0.188817 13.3315 0.0856473 13.6302C-0.0175227 13.9289 -0.0277066 14.2491 0.0563007 14.5531C0.140308 14.857 0.31499 15.1319 0.559673 15.3453L9.3367 22.9891L7.00721 34.0357C6.94251 34.3437 6.97275 34.6626 7.09436 34.9549C7.21597 35.2471 7.42387 35.5005 7.69347 35.6849C7.96307 35.8694 8.2831 35.9773 8.61573 35.9959C8.94836 36.0144 9.27968 35.9429 9.57052 35.7897L20 30.2894L30.4295 35.7897C30.7205 35.9436 31.0522 36.0156 31.3854 35.9972C31.7185 35.9788 32.0391 35.8708 32.3091 35.6861C32.579 35.5013 32.7871 35.2474 32.9086 34.9546C33.0301 34.6618 33.0599 34.3424 32.9945 34.0341L30.665 22.9908L39.4403 15.3453C39.685 15.1319 39.8597 14.857 39.9437 14.5531C40.0277 14.2491 40.0175 13.9289 39.9144 13.6302C39.8112 13.3315 39.6193 13.0669 39.3615 12.8678C39.1037 12.6686 38.7908 12.5432 38.4597 12.5064L26.5906 11.1782L21.5844 0.955119Z" fill="#66C000"/>
</svg>
